<mxfile host="app.diagrams.net" agent="Mozilla/5.0 (Windows NT 10.0; Win64; x64) AppleWebKit/537.36 (KHTML, like Gecko) Chrome/128.0.0.0 Safari/537.36" version="24.7.16">
  <diagram name="第 1 页" id="K9J4W_WyhOhIFcVBccI8">
    <mxGraphModel>
      <root>
        <mxCell id="0" />
        <mxCell id="1" parent="0" />
        <mxCell id="2" value="开始" style="whiteSpace=wrap;strokeWidth=2;" vertex="1" parent="1">
          <mxGeometry x="8" y="206" width="94" height="49" as="geometry" />
        </mxCell>
        <mxCell id="3" value="收集文章" style="whiteSpace=wrap;strokeWidth=2;" vertex="1" parent="1">
          <mxGeometry x="152" y="206" width="125" height="49" as="geometry" />
        </mxCell>
        <mxCell id="4" value="阅读文章" style="whiteSpace=wrap;strokeWidth=2;" vertex="1" parent="1">
          <mxGeometry x="327" y="206" width="125" height="49" as="geometry" />
        </mxCell>
        <mxCell id="5" value="总结主要内容" style="whiteSpace=wrap;strokeWidth=2;" vertex="1" parent="1">
          <mxGeometry x="502" y="206" width="157" height="49" as="geometry" />
        </mxCell>
        <mxCell id="6" value="整理笔记" style="whiteSpace=wrap;strokeWidth=2;" vertex="1" parent="1">
          <mxGeometry x="709" y="206" width="126" height="49" as="geometry" />
        </mxCell>
        <mxCell id="7" value="构建思维导图" style="whiteSpace=wrap;strokeWidth=2;" vertex="1" parent="1">
          <mxGeometry x="885" y="206" width="157" height="49" as="geometry" />
        </mxCell>
        <mxCell id="8" value="撰写笔记" style="whiteSpace=wrap;strokeWidth=2;" vertex="1" parent="1">
          <mxGeometry x="1092" y="206" width="126" height="49" as="geometry" />
        </mxCell>
        <mxCell id="9" value="论文结构" style="whiteSpace=wrap;strokeWidth=2;" vertex="1" parent="1">
          <mxGeometry x="1268" y="206" width="125" height="49" as="geometry" />
        </mxCell>
        <mxCell id="10" value="引言" style="whiteSpace=wrap;strokeWidth=2;" vertex="1" parent="1">
          <mxGeometry x="1444" y="8" width="92" height="49" as="geometry" />
        </mxCell>
        <mxCell id="11" value="正文" style="whiteSpace=wrap;strokeWidth=2;" vertex="1" parent="1">
          <mxGeometry x="1443" y="206" width="94" height="49" as="geometry" />
        </mxCell>
        <mxCell id="12" value="结论" style="whiteSpace=wrap;strokeWidth=2;" vertex="1" parent="1">
          <mxGeometry x="1443" y="404" width="94" height="49" as="geometry" />
        </mxCell>
        <mxCell id="13" value="背景介绍" style="whiteSpace=wrap;strokeWidth=2;" vertex="1" parent="1">
          <mxGeometry x="1596" y="8" width="124" height="49" as="geometry" />
        </mxCell>
        <mxCell id="14" value="研究方法" style="whiteSpace=wrap;strokeWidth=2;" vertex="1" parent="1">
          <mxGeometry x="1595" y="107" width="125" height="49" as="geometry" />
        </mxCell>
        <mxCell id="15" value="实验结果" style="whiteSpace=wrap;strokeWidth=2;" vertex="1" parent="1">
          <mxGeometry x="1595" y="206" width="126" height="49" as="geometry" />
        </mxCell>
        <mxCell id="16" value="讨论" style="whiteSpace=wrap;strokeWidth=2;" vertex="1" parent="1">
          <mxGeometry x="1611" y="305" width="94" height="49" as="geometry" />
        </mxCell>
        <mxCell id="17" value="总结与展望" style="whiteSpace=wrap;strokeWidth=2;" vertex="1" parent="1">
          <mxGeometry x="1587" y="404" width="141" height="49" as="geometry" />
        </mxCell>
        <mxCell id="18" value="" style="curved=1;startArrow=none;endArrow=block;exitX=1;exitY=0.5;entryX=0;entryY=0.5;" edge="1" parent="1" source="2" target="3">
          <mxGeometry relative="1" as="geometry">
            <Array as="points" />
          </mxGeometry>
        </mxCell>
        <mxCell id="19" value="" style="curved=1;startArrow=none;endArrow=block;exitX=1;exitY=0.5;entryX=0;entryY=0.5;" edge="1" parent="1" source="3" target="4">
          <mxGeometry relative="1" as="geometry">
            <Array as="points" />
          </mxGeometry>
        </mxCell>
        <mxCell id="20" value="" style="curved=1;startArrow=none;endArrow=block;exitX=1;exitY=0.5;entryX=0;entryY=0.5;" edge="1" parent="1" source="4" target="5">
          <mxGeometry relative="1" as="geometry">
            <Array as="points" />
          </mxGeometry>
        </mxCell>
        <mxCell id="21" value="" style="curved=1;startArrow=none;endArrow=block;exitX=1;exitY=0.5;entryX=0;entryY=0.5;" edge="1" parent="1" source="5" target="6">
          <mxGeometry relative="1" as="geometry">
            <Array as="points" />
          </mxGeometry>
        </mxCell>
        <mxCell id="22" value="" style="curved=1;startArrow=none;endArrow=block;exitX=1;exitY=0.5;entryX=0;entryY=0.5;" edge="1" parent="1" source="6" target="7">
          <mxGeometry relative="1" as="geometry">
            <Array as="points" />
          </mxGeometry>
        </mxCell>
        <mxCell id="23" value="" style="curved=1;startArrow=none;endArrow=block;exitX=1;exitY=0.5;entryX=0;entryY=0.5;" edge="1" parent="1" source="7" target="8">
          <mxGeometry relative="1" as="geometry">
            <Array as="points" />
          </mxGeometry>
        </mxCell>
        <mxCell id="24" value="" style="curved=1;startArrow=none;endArrow=block;exitX=1;exitY=0.5;entryX=0;entryY=0.5;" edge="1" parent="1" source="8" target="9">
          <mxGeometry relative="1" as="geometry">
            <Array as="points" />
          </mxGeometry>
        </mxCell>
        <mxCell id="25" value="" style="curved=1;startArrow=none;endArrow=block;exitX=0.59;exitY=0;entryX=0;entryY=0.5;" edge="1" parent="1" source="9" target="10">
          <mxGeometry relative="1" as="geometry">
            <Array as="points">
              <mxPoint x="1418" y="33" />
            </Array>
          </mxGeometry>
        </mxCell>
        <mxCell id="26" value="" style="curved=1;startArrow=none;endArrow=block;exitX=1;exitY=0.5;entryX=0;entryY=0.5;" edge="1" parent="1" source="9" target="11">
          <mxGeometry relative="1" as="geometry">
            <Array as="points" />
          </mxGeometry>
        </mxCell>
        <mxCell id="27" value="" style="curved=1;startArrow=none;endArrow=block;exitX=0.59;exitY=1;entryX=0;entryY=0.5;" edge="1" parent="1" source="9" target="12">
          <mxGeometry relative="1" as="geometry">
            <Array as="points">
              <mxPoint x="1418" y="429" />
            </Array>
          </mxGeometry>
        </mxCell>
        <mxCell id="28" value="" style="curved=1;startArrow=none;endArrow=block;exitX=1;exitY=0.5;entryX=0;entryY=0.5;" edge="1" parent="1" source="10" target="13">
          <mxGeometry relative="1" as="geometry">
            <Array as="points" />
          </mxGeometry>
        </mxCell>
        <mxCell id="29" value="" style="curved=1;startArrow=none;endArrow=block;exitX=0.69;exitY=0;entryX=0;entryY=0.5;" edge="1" parent="1" source="11" target="14">
          <mxGeometry relative="1" as="geometry">
            <Array as="points">
              <mxPoint x="1562" y="132" />
            </Array>
          </mxGeometry>
        </mxCell>
        <mxCell id="30" value="" style="curved=1;startArrow=none;endArrow=block;exitX=1;exitY=0.5;entryX=0;entryY=0.5;" edge="1" parent="1" source="11" target="15">
          <mxGeometry relative="1" as="geometry">
            <Array as="points" />
          </mxGeometry>
        </mxCell>
        <mxCell id="31" value="" style="curved=1;startArrow=none;endArrow=block;exitX=0.69;exitY=1;entryX=-0.01;entryY=0.5;" edge="1" parent="1" source="11" target="16">
          <mxGeometry relative="1" as="geometry">
            <Array as="points">
              <mxPoint x="1562" y="330" />
            </Array>
          </mxGeometry>
        </mxCell>
        <mxCell id="32" value="" style="curved=1;startArrow=none;endArrow=block;exitX=1;exitY=0.5;entryX=0;entryY=0.5;" edge="1" parent="1" source="12" target="17">
          <mxGeometry relative="1" as="geometry">
            <Array as="points" />
          </mxGeometry>
        </mxCell>
      </root>
    </mxGraphModel>
  </diagram>
</mxfile>
